<svg width="289" height="155" viewBox="0 0 289 155" fill="none" xmlns="http://www.w3.org/2000/svg">
<path d="M288.089 114.936C288.51 109.76 286.55 104.588 282.568 100.361C276.466 93.8869 267.353 91.1465 260.873 90.7325C250.566 90.0826 241.609 94 234.946 97.4817C228.406 100.907 222.284 104.875 216.355 108.721C209.769 112.998 203.472 117.075 197.015 120.184C197.135 119.769 197.269 119.349 197.412 118.901C198.948 114.067 201.116 108.927 202.678 105.175C203.451 103.338 204.06 101.878 204.53 100.643C208.327 95.1267 209.7 88.1483 208.096 81.8628C206.768 76.6295 203.694 71.9947 199.505 68.4475C199.133 68.0231 198.734 67.6092 198.331 67.2044C193.788 62.7286 185.352 58.0436 170.978 61.0835C164.109 62.5376 156.389 65.5857 147.373 70.3903C134.7 77.1465 122.889 85.6528 117.65 89.5818C117.684 89.492 117.714 89.4112 117.737 89.3177C119.272 84.4837 121.441 79.3432 123.003 75.5918C123.885 73.4883 124.561 71.8801 125.048 70.5387C128.6 65.105 129.856 58.3489 128.302 52.235C127.009 47.1478 124.081 42.6384 120.071 39.1268C119.619 38.6117 119.154 38.102 118.666 37.6244C114.123 33.1487 105.686 28.4636 91.3129 31.5035C84.4439 32.9576 76.7236 36.0058 67.7081 40.8103C54.8923 47.6464 42.9482 56.2669 37.8028 60.1282C37.8561 59.9845 37.8896 59.8335 37.943 59.6899C39.4783 54.8559 41.6466 49.7154 43.2087 45.964C44.4976 42.8876 45.3535 40.856 45.8213 39.2011C49.146 27.4515 46.4898 15.4937 38.8619 7.99293C34.3188 3.51722 25.8823 -1.16783 11.5089 1.87205C4.64001 3.32611 -3.08034 6.37428 -12.0958 11.1788C-26.532 18.8844 -39.8793 28.8533 -43.6191 31.7245L-27.3159 49.5872C-24.4613 47.3986 -14.25 39.7382 -2.74829 33.1599C12.9055 24.2106 19.9244 23.5377 21.982 23.5866C22.6761 24.9987 23.2329 28.1784 22.1302 32.0596C21.93 32.6901 21.0373 34.8206 20.3212 36.5366C18.1198 41.7668 15.1123 48.9245 13.2665 55.9315C11.2635 63.5441 9.54224 74.4997 17.7595 81.8413C19.5547 83.4477 21.543 84.6558 23.7143 85.462C29.4054 87.5751 36.3647 86.9718 44.5291 83.6389C54.4589 79.5927 63.2419 73.895 71.7301 68.3838C77.4673 64.6606 82.8896 61.1472 88.4889 58.2206C90.5332 57.1511 96.7753 53.891 101.287 54.1667C101.542 54.1795 101.849 54.2327 102.16 54.3072C102.615 55.9677 102.787 58.6055 101.911 61.6925C101.711 62.323 100.818 64.4535 100.102 66.1695C97.9007 71.3997 94.8933 78.5574 93.0475 85.5644C91.0444 93.177 89.323 104.133 97.5403 111.475C99.3355 113.081 101.324 114.289 103.495 115.095C109.186 117.208 116.145 116.605 124.31 113.272C134.24 109.226 143.023 103.528 151.511 98.0172C157.248 94.2939 162.67 90.7805 168.27 87.8539C170.314 86.7844 176.556 83.5243 181.068 83.8C181.289 83.8108 181.554 83.8578 181.825 83.9176C182.281 85.5781 182.445 88.2036 181.573 91.2816C181.373 91.9121 180.48 94.0427 179.764 95.7586C177.562 100.989 174.555 108.147 172.709 115.154C170.706 122.766 168.985 133.722 177.202 141.063C178.997 142.67 180.986 143.878 183.157 144.684C188.848 146.797 195.807 146.194 203.972 142.861C213.902 138.815 222.685 133.117 231.173 127.606C236.91 123.883 242.332 120.369 247.932 117.443C249.976 116.373 256.218 113.113 260.73 113.389C261.534 113.442 262.446 113.689 263.186 113.974C261.389 120.304 254.626 132.228 248.494 140.964L269.257 154.199C272.2 150.011 286.92 128.446 288.019 114.94L288.089 114.936Z" fill="url(#paint0_linear_628_11657)"/>
<defs>
<linearGradient id="paint0_linear_628_11657" x1="-39.0796" y1="19.4985" x2="125.437" y2="-118.201" gradientUnits="userSpaceOnUse">
<stop stop-color="#FFBF66"/>
<stop offset="1" stop-color="#10C3BD" stop-opacity="0.5"/>
</linearGradient>
</defs>
</svg>
