<svg width="123" height="273" viewBox="0 0 123 273" fill="none" xmlns="http://www.w3.org/2000/svg">
<path d="M143.412 67.4072C143.412 60.7551 139.584 54.9669 133.234 50.1588C139.584 45.374 143.412 39.5852 143.412 32.9098C143.412 12.3001 106.952 0 71.7062 0C36.4609 0 0 12.3001 0 32.9098C0 39.5618 3.82866 45.3506 10.1789 50.1588C3.82866 54.9436 0 60.7318 0 67.4072C0 74.0826 3.82866 79.848 10.1789 84.6561C3.82866 89.4409 0 95.2291 0 101.905C0 108.58 3.82866 114.345 10.1789 119.153C3.82866 123.938 0 129.727 0 136.402C0 143.077 3.82866 148.842 10.1789 153.65C3.82866 158.435 0 164.224 0 170.899C0 177.575 3.82866 183.34 10.1789 188.148C3.82866 192.932 0 198.721 0 205.397C0 212.072 3.82866 217.837 10.1789 222.645C3.82866 227.43 0 233.219 0 239.894C0 260.504 36.4609 272.804 71.7062 272.804C106.952 272.804 143.412 260.504 143.412 239.894C143.412 233.242 139.584 227.453 133.234 222.645C139.584 217.86 143.412 212.072 143.412 205.397C143.412 198.721 139.584 192.956 133.234 188.148C139.584 183.363 143.412 177.575 143.412 170.899C143.412 164.224 139.584 158.458 133.234 153.65C139.584 148.865 143.412 143.077 143.412 136.402C143.412 129.727 139.584 123.962 133.234 119.153C139.584 114.369 143.412 108.58 143.412 101.905C143.412 95.2291 139.584 89.4643 133.234 84.6561C139.584 79.8713 143.412 74.0826 143.412 67.4072ZM2.94715 32.9332C2.94715 19.2323 30.5661 4.57465 71.6906 4.57465C112.815 4.57465 140.434 19.2323 140.434 32.9332C140.434 38.0214 136.621 43.2266 129.724 47.778C115.915 39.2354 93.5674 34.4974 71.6758 34.4974C49.7842 34.4974 27.437 39.2587 13.6275 47.778C6.73035 43.2266 2.91673 37.9981 2.91673 32.9332H2.94715ZM125.744 50.1588C113.666 56.6474 94.8131 61.2922 71.7062 61.2922C48.5993 61.2922 29.7456 56.6474 17.668 50.1588C29.7456 43.6701 48.5993 39.0253 71.7062 39.0253C94.8131 39.0253 113.666 43.6701 125.744 50.1588ZM140.45 239.824C140.45 253.525 112.831 268.182 71.7062 268.182C30.5817 268.182 2.96272 253.525 2.96272 239.824C2.96272 234.736 6.7756 229.53 13.6727 224.979C27.4822 233.522 49.8295 238.26 71.7211 238.26C93.6126 238.26 115.96 233.498 129.769 224.979C136.667 229.53 140.48 234.759 140.48 239.824H140.45ZM17.6532 222.575C29.7308 216.086 48.5837 211.441 71.6906 211.441C94.7976 211.441 113.651 216.086 125.729 222.575C113.651 229.064 94.7976 233.708 71.6906 233.708C48.5837 233.708 29.7308 229.064 17.6532 222.575ZM140.45 205.35C140.45 210.438 136.636 215.643 129.739 220.218C115.929 211.675 93.5822 206.937 71.6906 206.937C49.7991 206.937 27.4518 211.698 13.6423 220.218C6.74519 215.666 2.93231 210.438 2.93231 205.35C2.93231 200.262 6.74519 195.056 13.6423 190.505C27.4518 199.048 49.7991 203.786 71.6906 203.786C93.5822 203.786 115.929 199.024 129.739 190.505C136.636 195.056 140.45 200.285 140.45 205.35ZM17.6532 188.101C29.7308 181.612 48.5837 176.968 71.6906 176.968C94.7976 176.968 113.651 181.612 125.729 188.101C113.651 194.59 94.7976 199.234 71.6906 199.234C48.5837 199.234 29.7308 194.59 17.6532 188.101ZM140.45 170.853C140.45 175.941 136.636 181.146 129.739 185.697C115.929 177.155 93.5822 172.416 71.6906 172.416C49.7991 172.416 27.4518 177.178 13.6423 185.697C6.74519 181.146 2.93231 175.917 2.93231 170.853C2.93231 165.788 6.74519 160.559 13.6423 156.008C27.4518 164.55 49.7991 169.289 71.6906 169.289C93.5822 169.289 115.929 164.527 129.739 156.008C136.636 160.559 140.45 165.788 140.45 170.853ZM17.6532 153.628C29.7308 147.139 48.5837 142.494 71.6906 142.494C94.7976 142.494 113.651 147.139 125.729 153.628C113.651 160.116 94.7976 164.76 71.6906 164.76C48.5837 164.76 29.7308 160.116 17.6532 153.628ZM140.45 136.379C140.45 141.467 136.636 146.672 129.739 151.223C115.929 142.681 93.5822 137.942 71.6906 137.942C49.7991 137.942 27.4518 142.704 13.6423 151.223C6.74519 146.672 2.93231 141.443 2.93231 136.379C2.93231 131.314 6.74519 126.086 13.6423 121.534C27.4518 130.077 49.7991 134.815 71.6906 134.815C93.5822 134.815 115.929 130.054 129.739 121.534C136.636 126.086 140.45 131.314 140.45 136.379ZM17.6532 119.13C29.7308 112.641 48.5837 107.997 71.6906 107.997C94.7976 107.997 113.651 112.641 125.729 119.13C113.651 125.619 94.7976 130.264 71.6906 130.264C48.5837 130.264 29.7308 125.619 17.6532 119.13ZM140.45 101.905C140.45 106.993 136.636 112.198 129.739 116.749C115.929 108.207 93.5822 103.468 71.6906 103.468C49.7991 103.468 27.4518 108.23 13.6423 116.749C6.74519 112.198 2.93231 106.969 2.93231 101.905C2.93231 96.8396 6.74519 91.6117 13.6423 87.0603C27.4518 95.6029 49.7991 100.341 71.6906 100.341C93.5822 100.341 115.929 95.5796 129.739 87.0603C136.636 91.6117 140.45 96.8396 140.45 101.905ZM17.6532 84.6561C29.7308 78.1675 48.5837 73.5227 71.6906 73.5227C94.7976 73.5227 113.651 78.1675 125.729 84.6561C113.651 91.1448 94.7976 95.7896 71.6906 95.7896C48.5837 95.7896 29.7308 91.1448 17.6532 84.6561ZM129.739 82.2754C115.945 73.7327 93.5822 68.9947 71.6906 68.9947C49.7991 68.9947 27.4518 73.7561 13.6423 82.2754C6.74519 77.724 2.93231 72.4954 2.93231 67.4305C2.93231 62.3656 6.74519 57.1377 13.6423 52.5863C27.4518 61.1289 49.7991 65.8669 71.6906 65.8669C93.5822 65.8669 115.929 61.1056 129.739 52.5863C136.636 57.1377 140.45 62.3656 140.45 67.4305C140.45 72.4954 136.636 77.724 129.739 82.2754Z" fill="url(#paint0_linear_649_10629)"/>
<defs>
<linearGradient id="paint0_linear_649_10629" x1="71.7058" y1="4.60845e-09" x2="72" y2="332.5" gradientUnits="userSpaceOnUse">
<stop stop-color="#FFBF66"/>
<stop offset="1" stop-color="#0E9F9B" stop-opacity="0"/>
</linearGradient>
</defs>
</svg>
