<svg width="297" height="109" viewBox="0 0 297 109" fill="none" xmlns="http://www.w3.org/2000/svg">
<path d="M1.13742 21.2374C2.63068 14.4262 6.49283 8.74984 12.0168 5.23984C20.4823 -0.136059 30.5646 0.685932 37.1664 3.23035C47.664 7.28838 55.1303 16.54 60.4746 24.1471C65.7179 31.6238 70.3436 39.596 74.8234 47.3206C79.7971 55.9064 84.5576 64.1008 89.8346 71.1338C89.8682 70.5466 89.8906 69.9465 89.9131 69.3072C90.1713 62.4046 89.9131 54.8104 89.7447 49.2779C89.6548 46.5638 89.5876 44.411 89.5764 42.6104C87.8361 33.7636 89.0485 24.199 92.9669 16.9311C96.2229 10.8767 100.995 6.41444 106.474 3.87003C107.001 3.50467 107.552 3.16537 108.102 2.83916C114.277 -0.72303 124.404 -2.70612 137.585 7.99349C143.884 13.1084 150.441 20.6633 157.637 31.0759C167.753 45.7161 176.365 62.1828 180.126 69.6856C180.126 69.5551 180.126 69.4376 180.137 69.3072C180.395 62.4046 180.137 54.8104 179.969 49.2779C179.868 46.1724 179.789 43.7977 179.8 41.8535C178.273 33.2285 179.52 24.0033 183.326 16.9311C186.492 11.0463 191.073 6.67531 196.361 4.09174C197.001 3.6481 197.652 3.21756 198.315 2.83916C204.49 -0.72303 214.617 -2.70612 227.798 7.99349C234.097 13.1084 240.653 20.6633 247.85 31.0759C258.078 45.8857 266.78 62.5612 270.474 69.9334C270.474 69.7247 270.496 69.5159 270.496 69.3072C270.754 62.4046 270.496 54.8104 270.328 49.2779C270.182 44.7371 270.081 41.7362 270.227 39.4005C271.259 22.8161 278.322 8.80223 288.685 2.83916C294.86 -0.72303 304.987 -2.70612 318.168 7.99349C324.466 13.1084 331.023 20.6633 338.22 31.0759C349.74 47.7647 359.339 66.828 362 72.2691L339.175 87.3531C337.142 83.2037 329.811 68.5762 320.795 54.7189C308.523 35.8641 301.787 31.6758 299.721 30.7624C298.509 32.2369 296.78 36.0342 296.443 41.5145C296.409 42.4148 296.51 45.5595 296.589 48.0909C296.847 55.8155 297.195 66.3844 296.443 76.2098C295.623 86.8833 293.288 101.693 282.397 107.173C280.017 108.374 277.592 108.974 275.133 108.974C268.688 108.974 261.986 104.903 255.092 96.7736C246.705 86.896 240.069 75.4529 233.659 64.3879C229.325 56.9112 225.227 49.8521 220.736 43.4584C219.097 41.1227 214.089 33.9982 209.497 32.2106C209.239 32.1062 208.913 32.0283 208.576 31.9761C207.51 33.8812 206.365 37.1691 206.095 41.5273C206.061 42.4276 206.162 45.5723 206.241 48.1037C206.499 55.8283 206.847 66.3971 206.095 76.2225C205.275 86.896 202.94 101.706 192.049 107.187C189.669 108.387 187.244 108.987 184.785 108.987C178.341 108.987 171.638 104.916 164.744 96.787C156.357 86.9094 149.722 75.4663 143.311 64.4013C138.977 56.9246 134.879 49.8654 130.388 43.4718C128.749 41.1361 123.742 34.0116 119.149 32.224C118.925 32.1326 118.644 32.0672 118.352 32.015C117.286 33.92 116.152 37.1956 115.882 41.5406C115.849 42.441 115.95 45.5857 116.028 48.117C116.286 55.8416 116.634 66.4105 115.882 76.2359C115.063 86.9094 112.727 101.719 101.837 107.199C99.4564 108.4 97.0313 109 94.5725 109C88.1279 109 81.4251 104.929 74.5315 96.7997C66.1445 86.9221 59.509 75.479 53.0981 64.414C48.7643 56.9374 44.6664 49.8782 40.1754 43.4845C38.5362 41.1489 33.5287 34.0243 28.9367 32.2367C28.117 31.9235 27.1178 31.8063 26.2758 31.8194C25.7256 40.7575 28.0496 59.1951 30.9238 73.2611L5.37018 80.3198C3.98923 73.5739 -2.69125 39.048 1.20471 21.2763L1.13742 21.2374Z" fill="url(#paint0_linear_649_12087)" fill-opacity="0.8"/>
<defs>
<linearGradient id="paint0_linear_649_12087" x1="362" y1="54.5" x2="237.174" y2="-117.313" gradientUnits="userSpaceOnUse">
<stop stop-color="#FFBF66"/>
<stop offset="1" stop-color="#10C3BD" stop-opacity="0.6"/>
</linearGradient>
</defs>
</svg>
