<svg width="1006" height="305" viewBox="0 0 1006 305" fill="none" xmlns="http://www.w3.org/2000/svg">
<g clip-path="url(#clip0_4_3)">
<path d="M83.0573 182.023H0V5.1084H78.6266C123.234 5.1084 142.384 24.1897 142.384 53.1121C142.384 73.0197 128.942 87.0678 109.792 90.1478C131.119 94.0542 147.716 108.102 147.716 133.419C147.641 163.994 124.361 182.023 83.0573 182.023ZM34.2443 78.654H76.3737C97.4009 78.654 106.413 69.4138 106.413 56.1921C106.413 42.9705 97.4009 33.4298 76.3737 33.4298H34.2443V78.654ZM34.2443 105.323V153.627H79.1523C101.081 153.627 111.744 144.387 111.744 129.738C111.744 114.863 101.081 105.323 79.1523 105.323H34.2443Z" fill="white"/>
<path d="M273.503 151.974C273.503 158.435 276.883 161.515 282.215 161.515C285.594 161.515 288.973 160.688 292.578 158.961V176.915C287.246 181.122 280.487 184.803 269.298 184.803C255.255 184.803 244.591 175.788 242.038 160.914C235.054 175.488 219.283 185.103 198.782 185.103C175.201 185.103 159.506 172.483 159.506 151.148C159.506 127.559 178.055 117.718 206.667 112.384L240.611 105.924V102.243C240.611 88.495 233.326 80.0812 218.983 80.0812C204.94 80.0812 197.355 88.495 194.576 100.59L163.937 97.8103C168.142 72.5689 187.517 54.8398 220.335 54.8398C252.326 54.8398 273.353 70.0147 273.353 102.618V151.974H273.503ZM240.611 124.179L217.331 128.986C201.861 132.066 192.324 135.973 192.324 147.542C192.324 156.256 198.481 162.717 209.446 162.717C227.169 162.717 240.611 149.495 240.611 128.461V124.179Z" fill="white"/>
<path d="M549.41 140.706C543.252 168.802 521.324 185.329 489.633 185.329C451.483 185.329 423.923 160.914 423.923 121.85C423.923 82.7858 451.709 54.7649 488.732 54.7649C529.134 54.7649 549.936 82.861 549.936 116.516V127.184H457.041C458.167 147.392 472.511 159.712 490.759 159.712C507.356 159.712 517.419 152.425 522.225 137.851L549.41 140.706ZM517.118 109.53C516.593 93.5284 507.281 79.4804 488.506 79.4804C469.957 79.4804 459.594 92.9275 457.641 109.53H517.118Z" fill="white"/>
<path d="M654.996 91.2747C648.538 87.5937 642.906 85.941 634.795 85.941C617.373 85.941 605.583 98.2612 605.583 120.723V181.948H571.864V58.1454H605.583V81.7341C610.088 67.6861 623.005 54.7649 640.127 54.7649C647.712 54.7649 653.87 56.7181 657.55 59.7981L654.996 91.2747Z" fill="white"/>
<path d="M671.743 5.1084H706.288V37.9372H671.743V5.1084ZM705.987 58.1453V181.948H672.269V58.1453H705.987Z" fill="white"/>
<path d="M767.417 182.024H733.698V58.1454H767.417V78.3536C773.575 64.3055 789.345 54.7649 807.819 54.7649C840.937 54.7649 853.027 77.2267 853.027 104.722V181.948H819.384V111.483C819.384 92.4016 811.799 81.4336 795.278 81.4336C778.155 81.4336 767.492 94.8807 767.492 115.69V182.024H767.417Z" fill="white"/>
<path d="M986.925 151.974C986.925 158.435 990.305 161.515 995.637 161.515C999.016 161.515 1002.4 160.688 1006 158.961V176.915C1000.67 181.122 993.909 184.803 982.72 184.803C968.677 184.803 958.013 175.788 955.46 160.914C948.476 175.488 932.705 185.103 912.204 185.103C888.623 185.103 872.928 172.483 872.928 151.148C872.928 127.559 891.477 117.718 920.089 112.384L954.033 105.924V102.243C954.033 88.495 946.748 80.0812 932.405 80.0812C918.362 80.0812 910.777 88.495 907.998 100.59L877.434 97.8103C881.639 72.5689 901.014 54.8398 933.832 54.8398C965.823 54.8398 986.85 70.0147 986.85 102.618V151.974H986.925ZM954.033 124.179L930.753 128.986C915.283 132.066 905.745 135.973 905.745 147.542C905.745 156.256 911.903 162.717 922.868 162.717C940.59 162.717 954.033 149.495 954.033 128.461V124.179Z" fill="white"/>
<path d="M307.222 51.0837V0H349.952V67.4606L307.222 51.0837Z" fill="white"/>
<path d="M307.222 67.085L336.51 78.2783L307.222 89.4717V67.085Z" fill="white"/>
<path d="M349.952 89.0959V113.811L329.225 182.023H307.222V105.473L349.952 89.0959Z" fill="white"/>
<path d="M407.552 51.0837V0H364.821V67.4606L407.552 51.0837Z" fill="white"/>
<path d="M407.552 67.085L378.264 78.2783L407.552 89.4717V67.085Z" fill="white"/>
<path d="M364.821 89.0959V113.811L385.548 182.023H407.552V105.473L364.821 89.0959Z" fill="white"/>
<path d="M513.814 282.087C513.814 278.406 512.537 275.552 509.909 273.523C507.28 271.495 502.624 269.467 495.791 267.438C489.032 265.41 483.625 263.081 479.57 260.602C471.91 255.794 468.08 249.484 468.08 241.746C468.08 234.985 470.858 229.351 476.416 224.919C481.973 220.486 489.182 218.308 497.968 218.308C503.826 218.308 509.083 219.36 513.664 221.538C518.245 223.717 521.849 226.797 524.478 230.778C527.106 234.76 528.383 239.192 528.383 244.075H513.814C513.814 239.643 512.462 236.262 509.684 233.708C506.905 231.229 503 229.952 497.818 229.952C493.012 229.952 489.332 231.004 486.704 233.032C484.075 235.06 482.724 237.915 482.724 241.596C482.724 244.676 484.151 247.23 487.004 249.334C489.858 251.437 494.589 253.39 501.123 255.344C507.656 257.297 512.988 259.55 516.968 262.03C520.948 264.509 523.877 267.363 525.679 270.594C527.557 273.824 528.458 277.58 528.458 281.937C528.458 288.999 525.754 294.558 520.347 298.69C514.94 302.821 507.656 304.925 498.419 304.925C492.336 304.925 486.704 303.798 481.597 301.544C476.491 299.291 472.511 296.135 469.657 292.154C466.803 288.172 465.376 283.515 465.376 278.256H480.02C480.02 283.064 481.597 286.745 484.751 289.374C487.905 292.004 492.486 293.281 498.344 293.281C503.451 293.281 507.28 292.229 509.834 290.201C512.537 288.248 513.814 285.468 513.814 282.087Z" fill="#53C3C2"/>
<path d="M593.867 284.416L603.855 241.145H617.598L600.476 303.798H588.911L575.469 260.752L562.252 303.798H550.687L533.564 241.145H547.307L557.445 283.965L570.287 241.145H580.876L593.867 284.416Z" fill="#53C3C2"/>
<path d="M663.182 303.798C662.581 302.596 662.055 300.643 661.53 297.938C657.024 302.596 651.542 304.925 645.084 304.925C638.775 304.925 633.669 303.122 629.689 299.516C625.709 295.91 623.756 291.478 623.756 286.219C623.756 279.533 626.234 274.425 631.191 270.819C636.147 267.213 643.281 265.485 652.443 265.485H661.079V261.429C661.079 258.198 660.178 255.569 658.376 253.616C656.573 251.663 653.795 250.686 650.115 250.686C646.886 250.686 644.257 251.512 642.23 253.09C640.202 254.667 639.151 256.696 639.151 259.175H625.108C625.108 255.719 626.234 252.489 628.487 249.559C630.74 246.554 633.894 244.225 637.799 242.498C641.704 240.77 646.06 239.943 650.941 239.943C658.301 239.943 664.158 241.821 668.514 245.502C672.869 249.184 675.122 254.367 675.197 261.053V289.299C675.197 294.933 676.024 299.441 677.601 302.821V303.798H663.182ZM647.712 293.656C650.491 293.656 653.119 292.98 655.522 291.628C658 290.276 659.803 288.473 661.079 286.219V274.425H653.494C648.313 274.425 644.333 275.326 641.704 277.129C639.076 278.932 637.799 281.486 637.799 284.867C637.799 287.571 638.7 289.75 640.503 291.328C642.305 292.905 644.708 293.656 647.712 293.656Z" fill="#53C3C2"/>
<path d="M701.782 241.145L702.157 248.357C706.813 242.723 712.896 239.943 720.406 239.943C733.473 239.943 740.081 247.381 740.307 262.33V303.723H726.263V263.081C726.263 259.1 725.437 256.17 723.71 254.217C721.983 252.339 719.204 251.362 715.299 251.362C709.592 251.362 705.386 253.916 702.608 259.1V303.723H688.565V241.145H701.782Z" fill="#53C3C2"/>
<path d="M783.713 292.154H822.012V303.873H769.069V219.435H783.713V292.154Z" fill="#53C3C2"/>
<path d="M868.122 303.798C867.521 302.596 866.995 300.643 866.47 297.938C861.964 302.596 856.482 304.925 850.023 304.925C843.715 304.925 838.609 303.122 834.628 299.516C830.648 295.91 828.696 291.478 828.696 286.219C828.696 279.533 831.174 274.425 836.13 270.819C841.087 267.213 848.221 265.485 857.383 265.485H866.019V261.429C866.019 258.198 865.118 255.569 863.316 253.616C861.513 251.663 858.735 250.686 855.055 250.686C851.826 250.686 849.197 251.512 847.17 253.09C845.142 254.667 844.091 256.696 844.091 259.175H830.048C830.048 255.719 831.174 252.489 833.427 249.559C835.68 246.554 838.834 244.225 842.739 242.498C846.644 240.77 851 239.943 855.881 239.943C863.24 239.943 869.098 241.821 873.454 245.502C877.809 249.184 880.062 254.367 880.137 261.053V289.299C880.137 294.933 880.963 299.441 882.54 302.821V303.798H868.122ZM852.652 293.656C855.43 293.656 858.059 292.98 860.462 291.628C862.94 290.276 864.742 288.473 866.019 286.219V274.425H858.434C853.253 274.425 849.272 275.326 846.644 277.129C844.016 278.932 842.739 281.486 842.739 284.867C842.739 287.571 843.64 289.75 845.442 291.328C847.245 292.905 849.648 293.656 852.652 293.656Z" fill="#53C3C2"/>
<path d="M914.006 276.979L907.773 283.44V303.873H893.73V214.852H907.773V266.161L912.204 260.677L929.551 241.145H946.448L923.168 267.288L948.926 303.873H932.63L914.006 276.979Z" fill="#53C3C2"/>
<path d="M980.843 305C971.906 305 964.697 302.221 959.139 296.586C953.582 290.952 950.804 283.515 950.804 274.124V272.397C950.804 266.161 952.005 260.527 954.408 255.644C956.811 250.686 960.191 246.855 964.546 244.15C968.902 241.446 973.783 240.019 979.115 240.019C987.676 240.019 994.21 242.723 998.866 248.207C1003.52 253.616 1005.85 261.354 1005.85 271.345V277.054H964.922C965.373 282.238 967.1 286.294 970.104 289.299C973.107 292.304 976.937 293.807 981.518 293.807C987.977 293.807 993.234 291.177 997.289 285.994L1004.87 293.206C1002.4 296.962 999.016 299.892 994.811 301.92C990.755 303.948 986.024 305 980.843 305ZM979.19 251.287C975.36 251.287 972.206 252.639 969.803 255.344C967.4 258.048 965.898 261.804 965.222 266.612H992.032V265.56C991.732 260.828 990.455 257.297 988.277 254.893C986.099 252.489 983.095 251.287 979.19 251.287Z" fill="#53C3C2"/>
</g>
<defs>
<clipPath id="clip0_4_3">
<rect width="1006" height="305" fill="white"/>
</clipPath>
</defs>
</svg>
