<svg width="188" height="74" viewBox="0 0 188 74" fill="none" xmlns="http://www.w3.org/2000/svg">
<path d="M69.8143 4.29088L54.1012 44.3969L38.3033 1.50488L21.5603 44.3009L7.27925 4.29088H0.78125L21.3053 60.4799L38.1452 17.6829L53.9263 60.5269L76.3102 4.29088H69.8143Z" fill="#FF7300"/>
<path d="M101.424 32.8391C98.8032 30.6971 85.0752 23.5651 83.3092 22.3321C81.5492 21.1031 80.6652 19.3121 80.6652 16.9611C80.6652 14.6071 81.5622 12.6961 83.3512 11.2281C85.1402 9.75111 87.3182 9.02211 89.8832 9.02211C91.5372 9.02211 92.9502 9.34011 94.1292 9.98611C95.3042 10.6291 96.4272 11.6731 97.4932 13.1161L98.0582 13.9921C98.2152 14.1051 98.4342 14.3721 98.7012 14.7931L103.43 11.7511C101.88 9.02411 99.9442 6.95411 97.6162 5.53511C95.2952 4.12111 92.7942 3.41211 90.1272 3.41211C85.5832 3.41211 81.8652 4.69111 78.9792 7.25811C76.0972 9.82311 74.6562 13.1161 74.6562 17.1261C74.6562 20.9161 75.9592 23.8441 78.5782 25.8991C81.2002 27.9551 94.2632 34.7361 96.2932 36.1261C98.3252 37.5131 99.3362 39.5701 99.3362 42.2971C99.3362 45.3971 98.3152 47.9711 96.2542 50.0251C94.1952 52.0881 91.5882 53.1131 88.4412 53.1131C85.6642 53.1131 83.3662 52.2591 81.5512 50.5461C79.7332 48.8341 78.4472 46.3851 77.7002 43.1771L71.9272 44.9431C72.4302 47.1071 73.1652 49.0351 74.1152 50.7141C75.0922 52.4281 76.3002 53.8821 77.7412 55.0761C80.5982 57.4581 84.2192 58.6491 88.6042 58.6491C93.2522 58.6491 97.2022 57.0541 100.466 53.8771C103.722 50.6971 105.352 46.8101 105.352 42.2111C105.352 38.1001 104.044 34.9721 101.424 32.8391Z" fill="#FF7300"/>
<path d="M168.726 29.161C170.073 28.778 171.503 28.585 173.032 28.585C177.104 28.585 180.402 29.903 182.915 32.536C185.437 35.159 186.702 38.259 186.702 41.83C186.702 44.34 186.098 46.692 184.889 48.89C183.689 51.086 181.349 54.07 177.872 57.817L166.853 69.709H187.296V73.986H157.222L174.144 55.713C177.572 52.032 179.807 49.308 180.843 47.532C181.88 45.761 182.395 43.887 182.395 41.926C182.395 39.435 181.468 37.289 179.605 35.496C177.751 33.704 175.476 32.802 172.783 32.802C171.243 32.802 169.847 33.082 168.586 33.639C168.699 32.565 168.74 29.561 168.726 29.161Z" fill="white"/>
<path d="M136.385 55.6324C149.837 55.6324 160.741 44.6114 160.741 31.0164C160.741 17.4213 149.837 6.40039 136.385 6.40039C122.934 6.40039 112.029 17.4213 112.029 31.0164C112.029 44.6114 122.934 55.6324 136.385 55.6324Z" fill="#FF7300"/>
<path d="M136.385 0.78125C119.64 0.78125 106.066 14.3182 106.066 31.0162C106.066 47.7142 119.64 61.2513 136.385 61.2513C153.129 61.2513 166.704 47.7142 166.704 31.0162C166.704 14.3182 153.129 0.78125 136.385 0.78125ZM136.385 55.6323C122.934 55.6323 112.029 44.6112 112.029 31.0162C112.029 17.4212 122.933 6.40025 136.385 6.40025C149.837 6.40025 160.741 17.4212 160.741 31.0162C160.741 44.6112 149.836 55.6323 136.385 55.6323Z" fill="white"/>
<path d="M160.661 29.0985L151.835 29.1195L147.435 37.0375L136.455 10.2705L126.577 32.2585L112.06 32.2275C112.118 33.4385 112.265 34.6265 112.491 35.7855L128.876 35.8205L136.306 19.2805L146.951 45.2305L153.93 32.6725L160.682 32.6565C160.717 32.1145 160.742 31.5685 160.742 31.0175C160.742 30.3705 160.709 29.7325 160.661 29.0985Z" fill="black"/>
</svg>
